<svg width="405" height="232" viewBox="0 0 405 232" fill="none" xmlns="http://www.w3.org/2000/svg"><rect x="0" y="0" width="405" height="232" fill="#141817"></rect><polygon points="8,8 373,8 373,208 8,208" stroke="#4F5150" stroke-width="0.4"></polygon><text x="23.5" y="222" fill="white" font-family="system-ui" font-size="12" text-anchor="middle">Jan</text><line x1="39" y1="8" x2="39" y2="208" stroke="#4F5150" stroke-width="0.4"></line><text x="53" y="222" fill="white" font-family="system-ui" font-size="12" text-anchor="middle">Feb</text><line x1="67" y1="8" x2="67" y2="208" stroke="#4F5150" stroke-width="0.4"></line><text x="82.5" y="222" fill="white" font-family="system-ui" font-size="12" text-anchor="middle">Mar</text><line x1="98" y1="8" x2="98" y2="208" stroke="#4F5150" stroke-width="0.4"></line><text x="113" y="222" fill="white" font-family="system-ui" font-size="12" text-anchor="middle">Apr</text><line x1="128" y1="8" x2="128" y2="208" stroke="#4F5150" stroke-width="0.4"></line><text x="143.5" y="222" fill="white" font-family="system-ui" font-size="12" text-anchor="middle">May</text><line x1="159" y1="8" x2="159" y2="208" stroke="#4F5150" stroke-width="0.4"></line><text x="174" y="222" fill="white" font-family="system-ui" font-size="12" text-anchor="middle">Jun</text><line x1="189" y1="8" x2="189" y2="208" stroke="#4F5150" stroke-width="0.4"></line><text x="204.5" y="222" fill="white" font-family="system-ui" font-size="12" text-anchor="middle">Jul</text><line x1="220" y1="8" x2="220" y2="208" stroke="#4F5150" stroke-width="0.4"></line><text x="235.5" y="222" fill="white" font-family="system-ui" font-size="12" text-anchor="middle">Aug</text><line x1="251" y1="8" x2="251" y2="208" stroke="#4F5150" stroke-width="0.4"></line><text x="266" y="222" fill="white" font-family="system-ui" font-size="12" text-anchor="middle">Sep</text><line x1="281" y1="8" x2="281" y2="208" stroke="#4F5150" stroke-width="0.4"></line><text x="296.5" y="222" fill="white" font-family="system-ui" font-size="12" text-anchor="middle">Oct</text><line x1="312" y1="8" x2="312" y2="208" stroke="#4F5150" stroke-width="0.4"></line><text x="327" y="222" fill="white" font-family="system-ui" font-size="12" text-anchor="middle">Nov</text><line x1="342" y1="8" x2="342" y2="208" stroke="#4F5150" stroke-width="0.4"></line><text x="357.5" y="222" fill="white" font-family="system-ui" font-size="12" text-anchor="middle">Dec</text><line x1="373" y1="8" x2="373" y2="208" stroke="#4F5150" stroke-width="0.4"></line><line x1="8" y1="168" x2="373" y2="168" stroke="#4F5150" stroke-width="0.4"></line><line x1="8" y1="128" x2="373" y2="128" stroke="#4F5150" stroke-width="0.4"></line><line x1="8" y1="88" x2="373" y2="88" stroke="#4F5150" stroke-width="0.4"></line><line x1="8" y1="48" x2="373" y2="48" stroke="#4F5150" stroke-width="0.4"></line><text x="379" y="206" fill="white" font-family="system-ui" font-size="12" text-anchor="left"> 0k</text><text x="379" y="172" fill="white" font-family="system-ui" font-size="12" text-anchor="left">10k</text><text x="379" y="132" fill="white" font-family="system-ui" font-size="12" text-anchor="left">20k</text><text x="379" y="92" fill="white" font-family="system-ui" font-size="12" text-anchor="left">30k</text><text x="379" y="52" fill="white" font-family="system-ui" font-size="12" text-anchor="left">40k</text><text x="379" y="18" fill="white" font-family="system-ui" font-size="12" text-anchor="left">50k</text><line x1="8.5" y1="142.00396" x2="8.5" y2="141.488" stroke="#26A17B" stroke-width="1"></line><line x1="9.5" y1="141.8052" x2="9.5" y2="140.80308000000002" stroke="#26A17B" stroke-width="1"></line><line x1="10.5" y1="141.57888" x2="10.5" y2="140.88639999999998" stroke="#26A17B" stroke-width="1"></line><line x1="11.5" y1="141.38936" x2="11.5" y2="140.03252" stroke="#26A17B" stroke-width="1"></line><line x1="12.5" y1="140.988" x2="12.5" y2="140.48072" stroke="#D2475E" stroke-width="1"></line><line x1="13.5" y1="141.284" x2="13.5" y2="139.836" stroke="#26A17B" stroke-width="1"></line><line x1="14.5" y1="140.368" x2="14.5" y2="140.07236" stroke="#D2475E" stroke-width="1"></line><line x1="15.5" y1="140.356" x2="15.5" y2="139.29204" stroke="#26A17B" stroke-width="1"></line><line x1="16.5" y1="139.58136000000002" x2="16.5" y2="138.4048" stroke="#26A17B" stroke-width="1"></line><line x1="17.5" y1="139.41464000000002" x2="17.5" y2="138.004" stroke="#26A17B" stroke-width="1"></line><line x1="18.5" y1="138.73760000000001" x2="18.5" y2="136" stroke="#26A17B" stroke-width="1"></line><line x1="19.5" y1="136.4318" x2="19.5" y2="131.53184" stroke="#26A17B" stroke-width="1"></line><line x1="20.5" y1="133.14352000000002" x2="20.5" y2="128" stroke="#26A17B" stroke-width="1"></line><line x1="21.5" y1="128.4478" x2="21.5" y2="122.968" stroke="#26A17B" stroke-width="1"></line><line x1="22.5" y1="125.79596000000001" x2="22.5" y2="123.79704" stroke="#D2475E" stroke-width="1"></line><line x1="23.5" y1="125.55408" x2="23.5" y2="122.1038" stroke="#26A17B" stroke-width="1"></line><line x1="24.5" y1="124.63476" x2="24.5" y2="121.41019999999999" stroke="#D2475E" stroke-width="1"></line><line x1="25.5" y1="126.3714" x2="25.5" y2="121.4" stroke="#D2475E" stroke-width="1"></line><line x1="26.5" y1="125.36324" x2="26.5" y2="123.232" stroke="#26A17B" stroke-width="1"></line><line x1="27.5" y1="124.55488000000001" x2="27.5" y2="116.97628" stroke="#26A17B" stroke-width="1"></line><line x1="28.5" y1="118.312" x2="28.5" y2="114.51280000000001" stroke="#26A17B" stroke-width="1"></line><line x1="29.5" y1="118.83051999999999" x2="29.5" y2="115.68516" stroke="#D2475E" stroke-width="1"></line><line x1="30.5" y1="118" x2="30.5" y2="115.28" stroke="#26A17B" stroke-width="1"></line><line x1="31.5" y1="118.14828" x2="31.5" y2="115.3512" stroke="#D2475E" stroke-width="1"></line><line x1="32.5" y1="118.8" x2="32.5" y2="112.73308" stroke="#26A17B" stroke-width="1"></line><line x1="33.5" y1="116.59996000000001" x2="33.5" y2="114.87011999999999" stroke="#D2475E" stroke-width="1"></line><line x1="34.5" y1="117.86048" x2="34.5" y2="114" stroke="#26A17B" stroke-width="1"></line><line x1="35.5" y1="116.48616" x2="35.5" y2="115.244" stroke="#D2475E" stroke-width="1"></line><line x1="36.5" y1="116.12896" x2="36.5" y2="112.15784000000001" stroke="#26A17B" stroke-width="1"></line><line x1="37.5" y1="118" x2="37.5" y2="112.79796" stroke="#D2475E" stroke-width="1"></line><line x1="38.5" y1="117.14092" x2="38.5" y2="114.72" stroke="#26A17B" stroke-width="1"></line><line x1="39.5" y1="116.95908" x2="39.5" y2="112.74936" stroke="#26A17B" stroke-width="1"></line><line x1="40.5" y1="114.54692" x2="40.5" y2="110.98" stroke="#D2475E" stroke-width="1"></line><line x1="41.5" y1="115.18152" x2="41.5" y2="113.13719999999999" stroke="#D2475E" stroke-width="1"></line><line x1="42.5" y1="114.98416" x2="42.5" y2="113.64888" stroke="#D2475E" stroke-width="1"></line><line x1="43.5" y1="117.028" x2="43.5" y2="114.26668" stroke="#D2475E" stroke-width="1"></line><line x1="44.5" y1="117.48747999999999" x2="44.5" y2="115.367" stroke="#D2475E" stroke-width="1"></line><line x1="45.5" y1="117.01688" x2="45.5" y2="114.599" stroke="#26A17B" stroke-width="1"></line><line x1="46.5" y1="117.3366" x2="46.5" y2="114.192" stroke="#D2475E" stroke-width="1"></line><line x1="47.5" y1="121.248" x2="47.5" y2="115.95444" stroke="#D2475E" stroke-width="1"></line><line x1="48.5" y1="122.196" x2="48.5" y2="120.24736" stroke="#D2475E" stroke-width="1"></line><line x1="49.5" y1="121.60088" x2="49.5" y2="120.37472000000001" stroke="#26A17B" stroke-width="1"></line><line x1="50.5" y1="121.48" x2="50.5" y2="119.64" stroke="#D2475E" stroke-width="1"></line><line x1="51.5" y1="122.59572" x2="51.5" y2="120.42004" stroke="#D2475E" stroke-width="1"></line><line x1="52.5" y1="121.86892" x2="52.5" y2="118.72367999999999" stroke="#26A17B" stroke-width="1"></line><line x1="53.5" y1="119.81088" x2="53.5" y2="110.48" stroke="#26A17B" stroke-width="1"></line><line x1="54.5" y1="113.979" x2="54.5" y2="107" stroke="#D2475E" stroke-width="1"></line><line x1="55.5" y1="114.64252" x2="55.5" y2="107.91556" stroke="#26A17B" stroke-width="1"></line><line x1="56.5" y1="110.28" x2="56.5" y2="108.492" stroke="#26A17B" stroke-width="1"></line><line x1="57.5" y1="111.22972" x2="57.5" y2="107.23200000000001" stroke="#D2475E" stroke-width="1"></line><line x1="58.5" y1="112.63668" x2="58.5" y2="107.51508" stroke="#26A17B" stroke-width="1"></line><line x1="59.5" y1="111.40664" x2="59.5" y2="107" stroke="#D2475E" stroke-width="1"></line><line x1="60.5" y1="113.70124000000001" x2="60.5" y2="110.0958" stroke="#D2475E" stroke-width="1"></line><line x1="61.5" y1="113.568" x2="61.5" y2="109.60164" stroke="#D2475E" stroke-width="1"></line><line x1="62.5" y1="116.63524000000001" x2="62.5" y2="111.4706" stroke="#D2475E" stroke-width="1"></line><line x1="63.5" y1="117.112" x2="63.5" y2="115.12347999999999" stroke="#D2475E" stroke-width="1"></line><line x1="64.5" y1="115.76328" x2="64.5" y2="113.24004" stroke="#26A17B" stroke-width="1"></line><line x1="65.5" y1="115.57292" x2="65.5" y2="112.40803999999999" stroke="#D2475E" stroke-width="1"></line><line x1="66.5" y1="115.91611999999999" x2="66.5" y2="113.60000000000001" stroke="#D2475E" stroke-width="1"></line><line x1="67.5" y1="115.91988" x2="67.5" y2="112" stroke="#26A17B" stroke-width="1"></line><line x1="68.5" y1="115.2164" x2="68.5" y2="112.81228" stroke="#D2475E" stroke-width="1"></line><line x1="69.5" y1="120.11548" x2="69.5" y2="114.09219999999999" stroke="#D2475E" stroke-width="1"></line><line x1="70.5" y1="119.37168" x2="70.5" y2="118.36" stroke="#D2475E" stroke-width="1"></line><line x1="71.5" y1="119.24311999999999" x2="71.5" y2="117.35163999999999" stroke="#26A17B" stroke-width="1"></line><line x1="72.5" y1="118.968" x2="72.5" y2="117.59124" stroke="#D2475E" stroke-width="1"></line><line x1="73.5" y1="120.292" x2="73.5" y2="117.76836" stroke="#D2475E" stroke-width="1"></line><line x1="74.5" y1="121.68" x2="74.5" y2="118.85199999999999" stroke="#D2475E" stroke-width="1"></line><line x1="75.5" y1="127.82912" x2="75.5" y2="120.66004" stroke="#D2475E" stroke-width="1"></line><line x1="76.5" y1="129.80364" x2="76.5" y2="126.52888" stroke="#D2475E" stroke-width="1"></line><line x1="77.5" y1="128.93988000000002" x2="77.5" y2="125.25396" stroke="#26A17B" stroke-width="1"></line><line x1="78.5" y1="126.91760000000001" x2="78.5" y2="119.4" stroke="#26A17B" stroke-width="1"></line><line x1="79.5" y1="120.74448" x2="79.5" y2="110" stroke="#26A17B" stroke-width="1"></line><line x1="80.5" y1="112.09432000000001" x2="80.5" y2="102.45251999999999" stroke="#26A17B" stroke-width="1"></line><line x1="81.5" y1="112.4122" x2="81.5" y2="107.21212" stroke="#D2475E" stroke-width="1"></line><line x1="82.5" y1="111.508" x2="82.5" y2="107.3304" stroke="#26A17B" stroke-width="1"></line><line x1="83.5" y1="108.44" x2="83.5" y2="96.97264" stroke="#26A17B" stroke-width="1"></line><line x1="84.5" y1="101.68799999999999" x2="84.5" y2="97.1006" stroke="#D2475E" stroke-width="1"></line><line x1="85.5" y1="100.69112" x2="85.5" y2="94.43960000000001" stroke="#26A17B" stroke-width="1"></line><line x1="86.5" y1="99.50211999999999" x2="86.5" y2="94.11200000000001" stroke="#D2475E" stroke-width="1"></line><line x1="87.5" y1="98.78760000000001" x2="87.5" y2="94.24579999999999" stroke="#26A17B" stroke-width="1"></line><line x1="88.5" y1="101.59280000000001" x2="88.5" y2="92.5278" stroke="#D2475E" stroke-width="1"></line><line x1="89.5" y1="99.58" x2="89.5" y2="93.00000000000001" stroke="#26A17B" stroke-width="1"></line><line x1="90.5" y1="100" x2="90.5" y2="94.50280000000001" stroke="#D2475E" stroke-width="1"></line><line x1="91.5" y1="99.37564" x2="91.5" y2="96.85068000000001" stroke="#26A17B" stroke-width="1"></line><line x1="92.5" y1="98.32896000000001" x2="92.5" y2="95.2224" stroke="#26A17B" stroke-width="1"></line><line x1="93.5" y1="101.96744000000001" x2="93.5" y2="95.90456" stroke="#D2475E" stroke-width="1"></line><line x1="94.5" y1="101.47288" x2="94.5" y2="97.92" stroke="#26A17B" stroke-width="1"></line><line x1="95.5" y1="99.0396" x2="95.5" y2="93.4" stroke="#26A17B" stroke-width="1"></line><line x1="96.5" y1="97.256" x2="96.5" y2="91.26128" stroke="#D2475E" stroke-width="1"></line><line x1="97.5" y1="97.95316" x2="97.5" y2="93.37324" stroke="#26A17B" stroke-width="1"></line><line x1="98.5" y1="95.11891999999999" x2="98.5" y2="92.72116000000001" stroke="#D2475E" stroke-width="1"></line><line x1="99.5" y1="96.57428" x2="99.5" y2="93.88" stroke="#D2475E" stroke-width="1"></line><line x1="100.5" y1="99.19903999999998" x2="100.5" y2="93.99603999999998" stroke="#D2475E" stroke-width="1"></line><line x1="101.5" y1="97.34884000000001" x2="101.5" y2="94.22224" stroke="#26A17B" stroke-width="1"></line><line x1="102.5" y1="96.7796" x2="102.5" y2="92.89999999999999" stroke="#26A17B" stroke-width="1"></line><line x1="103.5" y1="97.15599999999999" x2="103.5" y2="95.27180000000001" stroke="#D2475E" stroke-width="1"></line><line x1="104.5" y1="96.93224" x2="104.5" y2="95.6" stroke="#D2475E" stroke-width="1"></line><line x1="105.5" y1="96.56392" x2="105.5" y2="95.38004" stroke="#26A17B" stroke-width="1"></line><line x1="106.5" y1="96.79999999999998" x2="106.5" y2="93.88" stroke="#26A17B" stroke-width="1"></line><line x1="107.5" y1="95.32" x2="107.5" y2="88.91999999999999" stroke="#26A17B" stroke-width="1"></line><line x1="108.5" y1="89.64" x2="108.5" y2="85.8" stroke="#26A17B" stroke-width="1"></line><line x1="109.5" y1="89.45039999999999" x2="109.5" y2="86.056" stroke="#D2475E" stroke-width="1"></line><line x1="110.5" y1="88.58164000000001" x2="110.5" y2="85.62" stroke="#26A17B" stroke-width="1"></line><line x1="111.5" y1="88.13600000000001" x2="111.5" y2="84" stroke="#26A17B" stroke-width="1"></line><line x1="112.5" y1="87.192" x2="112.5" y2="85.6176" stroke="#D2475E" stroke-width="1"></line><line x1="113.5" y1="87.52" x2="113.5" y2="85.80004000000001" stroke="#26A17B" stroke-width="1"></line><line x1="114.5" y1="91.03739999999999" x2="114.5" y2="86.73576" stroke="#D2475E" stroke-width="1"></line><line x1="115.5" y1="91.61288" x2="115.5" y2="86.06" stroke="#26A17B" stroke-width="1"></line><line x1="116.5" y1="93.92" x2="116.5" y2="86.34588" stroke="#D2475E" stroke-width="1"></line><line x1="117.5" y1="95.96" x2="117.5" y2="91.6468" stroke="#D2475E" stroke-width="1"></line><line x1="118.5" y1="99.5" x2="118.5" y2="94.50392" stroke="#D2475E" stroke-width="1"></line><line x1="119.5" y1="99.43860000000001" x2="119.5" y2="96.46912" stroke="#26A17B" stroke-width="1"></line><line x1="120.5" y1="98.75500000000001" x2="120.5" y2="96.7326" stroke="#D2475E" stroke-width="1"></line><line x1="121.5" y1="100.22872" x2="121.5" y2="95.99999999999999" stroke="#D2475E" stroke-width="1"></line><line x1="122.5" y1="99.232" x2="122.5" y2="94.40003999999999" stroke="#26A17B" stroke-width="1"></line><line x1="123.5" y1="99.06" x2="123.5" y2="87.856" stroke="#26A17B" stroke-width="1"></line><line x1="124.5" y1="94.48456" x2="124.5" y2="88.44" stroke="#26A17B" stroke-width="1"></line><line x1="125.5" y1="92.436" x2="125.5" y2="89.60184" stroke="#D2475E" stroke-width="1"></line><line x1="126.5" y1="91.87599999999999" x2="126.5" y2="90.20448" stroke="#D2475E" stroke-width="1"></line><line x1="127.5" y1="91.68164" x2="127.5" y2="88.12244" stroke="#26A17B" stroke-width="1"></line><line x1="128.5" y1="97.3322" x2="128.5" y2="90.65064" stroke="#D2475E" stroke-width="1"></line><line x1="129.5" y1="96.51199999999999" x2="129.5" y2="92.48047999999999" stroke="#26A17B" stroke-width="1"></line><line x1="130.5" y1="95.54524" x2="130.5" y2="90.93336" stroke="#26A17B" stroke-width="1"></line><line x1="131.5" y1="93.34544" x2="131.5" y2="90.48067999999999" stroke="#D2475E" stroke-width="1"></line><line x1="132.5" y1="92.80000000000001" x2="132.5" y2="89.292" stroke="#26A17B" stroke-width="1"></line><line x1="133.5" y1="94.80000000000001" x2="133.5" y2="88.72" stroke="#D2475E" stroke-width="1"></line><line x1="134.5" y1="94.41908000000001" x2="134.5" y2="91.44684" stroke="#D2475E" stroke-width="1"></line><line x1="135.5" y1="98.95200000000001" x2="135.5" y2="93.47596000000001" stroke="#D2475E" stroke-width="1"></line><line x1="136.5" y1="98.58800000000001" x2="136.5" y2="96.72800000000001" stroke="#D2475E" stroke-width="1"></line><line x1="137.5" y1="100.892" x2="137.5" y2="94.67432000000002" stroke="#D2475E" stroke-width="1"></line><line x1="138.5" y1="101.1918" x2="138.5" y2="97.47944000000001" stroke="#D2475E" stroke-width="1"></line><line x1="139.5" y1="104.75416000000001" x2="139.5" y2="99.63552000000001" stroke="#D2475E" stroke-width="1"></line><line x1="140.5" y1="101.23188" x2="140.5" y2="99.8182" stroke="#D2475E" stroke-width="1"></line><line x1="141.5" y1="101.75788" x2="141.5" y2="99.19999999999999" stroke="#26A17B" stroke-width="1"></line><line x1="142.5" y1="101.096" x2="142.5" y2="97.34564" stroke="#26A17B" stroke-width="1"></line><line x1="143.5" y1="100.59156" x2="143.5" y2="98.81244" stroke="#D2475E" stroke-width="1"></line><line x1="144.5" y1="101.82116" x2="144.5" y2="97.99999999999999" stroke="#26A17B" stroke-width="1"></line><line x1="145.5" y1="102.5552" x2="145.5" y2="98.05868" stroke="#D2475E" stroke-width="1"></line><line x1="146.5" y1="101.48" x2="146.5" y2="99.2656" stroke="#26A17B" stroke-width="1"></line><line x1="147.5" y1="100.69955999999999" x2="147.5" y2="99.39999999999999" stroke="#26A17B" stroke-width="1"></line><line x1="148.5" y1="101.33588000000002" x2="148.5" y2="98.8898" stroke="#D2475E" stroke-width="1"></line><line x1="149.5" y1="101.84716" x2="149.5" y2="99.60044" stroke="#26A17B" stroke-width="1"></line><line x1="150.5" y1="100.80756" x2="150.5" y2="98.01667999999998" stroke="#26A17B" stroke-width="1"></line><line x1="151.5" y1="103.678" x2="151.5" y2="99.12156" stroke="#D2475E" stroke-width="1"></line><line x1="152.5" y1="104.51244000000001" x2="152.5" y2="101.47208" stroke="#26A17B" stroke-width="1"></line><line x1="153.5" y1="102.69103999999999" x2="153.5" y2="100.27136" stroke="#26A17B" stroke-width="1"></line><line x1="154.5" y1="101.79599999999999" x2="154.5" y2="100.41999999999999" stroke="#26A17B" stroke-width="1"></line><line x1="155.5" y1="100.94256000000001" x2="155.5" y2="94.95472" stroke="#26A17B" stroke-width="1"></line><line x1="156.5" y1="97.9016" x2="156.5" y2="94.21144000000001" stroke="#D2475E" stroke-width="1"></line><line x1="157.5" y1="97.78399999999999" x2="157.5" y2="95.84563999999999" stroke="#D2475E" stroke-width="1"></line><line x1="158.5" y1="100.64396000000002" x2="158.5" y2="96.65796000000002" stroke="#D2475E" stroke-width="1"></line><line x1="159.5" y1="101.5798" x2="159.5" y2="98.6" stroke="#D2475E" stroke-width="1"></line><line x1="160.5" y1="101.97999999999999" x2="160.5" y2="98.8" stroke="#26A17B" stroke-width="1"></line><line x1="161.5" y1="100.34028" x2="161.5" y2="98.66684000000001" stroke="#D2475E" stroke-width="1"></line><line x1="162.5" y1="100.19599999999998" x2="162.5" y2="98.17992" stroke="#26A17B" stroke-width="1"></line><line x1="163.5" y1="106.44800000000001" x2="163.5" y2="99.48267999999999" stroke="#D2475E" stroke-width="1"></line><line x1="164.5" y1="106.59591999999999" x2="164.5" y2="98.57868" stroke="#26A17B" stroke-width="1"></line><line x1="165.5" y1="103.49996" x2="165.5" y2="98.43292000000001" stroke="#D2475E" stroke-width="1"></line><line x1="166.5" y1="103.16" x2="166.5" y2="100.75999999999999" stroke="#26A17B" stroke-width="1"></line><line x1="167.5" y1="102.92035999999999" x2="167.5" y2="100.86668" stroke="#D2475E" stroke-width="1"></line><line x1="168.5" y1="106.56799999999998" x2="168.5" y2="101.86452000000001" stroke="#D2475E" stroke-width="1"></line><line x1="169.5" y1="105.4612" x2="169.5" y2="103.17248000000001" stroke="#26A17B" stroke-width="1"></line><line x1="170.5" y1="105.59156" x2="170.5" y2="103.57408000000001" stroke="#D2475E" stroke-width="1"></line><line x1="171.5" y1="105.14972" x2="171.5" y2="102.26715999999999" stroke="#26A17B" stroke-width="1"></line><line x1="172.5" y1="108.71775999999998" x2="172.5" y2="103.608" stroke="#D2475E" stroke-width="1"></line><line x1="173.5" y1="108.8" x2="173.5" y2="104.96396" stroke="#26A17B" stroke-width="1"></line><line x1="174.5" y1="107.29776" x2="174.5" y2="101.92799999999998" stroke="#26A17B" stroke-width="1"></line><line x1="175.5" y1="103.27600000000001" x2="175.5" y2="100.64003999999998" stroke="#26A17B" stroke-width="1"></line><line x1="176.5" y1="102.9766" x2="176.5" y2="101.19999999999999" stroke="#D2475E" stroke-width="1"></line><line x1="177.5" y1="102.97355999999999" x2="177.5" y2="99.72764" stroke="#26A17B" stroke-width="1"></line><line x1="178.5" y1="101.39200000000001" x2="178.5" y2="94.38903999999998" stroke="#26A17B" stroke-width="1"></line><line x1="179.5" y1="94.96804" x2="179.5" y2="84.8" stroke="#26A17B" stroke-width="1"></line><line x1="180.5" y1="89.89756" x2="180.5" y2="86" stroke="#D2475E" stroke-width="1"></line><line x1="181.5" y1="88.80000000000001" x2="181.5" y2="82.27224000000001" stroke="#26A17B" stroke-width="1"></line><line x1="182.5" y1="87" x2="182.5" y2="84.8" stroke="#D2475E" stroke-width="1"></line><line x1="183.5" y1="86.89004" x2="183.5" y2="83.81596000000002" stroke="#D2475E" stroke-width="1"></line><line x1="184.5" y1="88.28" x2="184.5" y2="85.336" stroke="#D2475E" stroke-width="1"></line><line x1="185.5" y1="87.09532000000002" x2="185.5" y2="84.02012" stroke="#26A17B" stroke-width="1"></line><line x1="186.5" y1="88.56479999999999" x2="186.5" y2="85.16103999999999" stroke="#D2475E" stroke-width="1"></line><line x1="187.5" y1="87.80008000000001" x2="187.5" y2="84.62408" stroke="#26A17B" stroke-width="1"></line><line x1="188.5" y1="90" x2="188.5" y2="82.872" stroke="#26A17B" stroke-width="1"></line><line x1="189.5" y1="86.71771999999999" x2="189.5" y2="85.3536" stroke="#26A17B" stroke-width="1"></line><line x1="190.5" y1="87.38000000000001" x2="190.5" y2="84.836" stroke="#26A17B" stroke-width="1"></line><line x1="191.5" y1="85.71892" x2="191.5" y2="82.47999999999999" stroke="#26A17B" stroke-width="1"></line><line x1="192.5" y1="85.51999999999998" x2="192.5" y2="82.59724000000001" stroke="#D2475E" stroke-width="1"></line><line x1="193.5" y1="87.2" x2="193.5" y2="84.48772" stroke="#D2475E" stroke-width="1"></line><line x1="194.5" y1="88.59819999999999" x2="194.5" y2="82" stroke="#D2475E" stroke-width="1"></line><line x1="195.5" y1="89.19592" x2="195.5" y2="86.20400000000001" stroke="#26A17B" stroke-width="1"></line><line x1="196.5" y1="87.82212" x2="196.5" y2="86.45275999999998" stroke="#D2475E" stroke-width="1"></line><line x1="197.5" y1="87.75552000000002" x2="197.5" y2="86.21792" stroke="#D2475E" stroke-width="1"></line><line x1="198.5" y1="88.2" x2="198.5" y2="83.81688" stroke="#26A17B" stroke-width="1"></line><line x1="199.5" y1="86.8" x2="199.5" y2="84.74547999999999" stroke="#26A17B" stroke-width="1"></line><line x1="200.5" y1="87.16000000000001" x2="200.5" y2="84.067" stroke="#D2475E" stroke-width="1"></line><line x1="201.5" y1="86.996" x2="201.5" y2="80.78320000000001" stroke="#26A17B" stroke-width="1"></line><line x1="202.5" y1="88.4" x2="202.5" y2="81.47999999999999" stroke="#D2475E" stroke-width="1"></line><line x1="203.5" y1="87.2" x2="203.5" y2="86.43639999999998" stroke="#D2475E" stroke-width="1"></line><line x1="204.5" y1="87.74284" x2="204.5" y2="86.23416" stroke="#D2475E" stroke-width="1"></line><line x1="205.5" y1="89.36319999999999" x2="205.5" y2="86.65216" stroke="#D2475E" stroke-width="1"></line><line x1="206.5" y1="89.952" x2="206.5" y2="87.04088" stroke="#D2475E" stroke-width="1"></line><line x1="207.5" y1="88.95216" x2="207.5" y2="87.24364" stroke="#26A17B" stroke-width="1"></line><line x1="208.5" y1="89.71615999999999" x2="208.5" y2="86.33015999999999" stroke="#D2475E" stroke-width="1"></line><line x1="209.5" y1="89.09464" x2="209.5" y2="87.75319999999999" stroke="#26A17B" stroke-width="1"></line><line x1="210.5" y1="89.4996" x2="210.5" y2="88.004" stroke="#D2475E" stroke-width="1"></line><line x1="211.5" y1="89.08" x2="211.5" y2="86.60000000000001" stroke="#26A17B" stroke-width="1"></line><line x1="212.5" y1="92.55239999999999" x2="212.5" y2="87.60167999999999" stroke="#D2475E" stroke-width="1"></line><line x1="213.5" y1="91.80939999999998" x2="213.5" y2="90.496" stroke="#26A17B" stroke-width="1"></line><line x1="214.5" y1="91.61224" x2="214.5" y2="89.24" stroke="#26A17B" stroke-width="1"></line><line x1="215.5" y1="91.66460000000001" x2="215.5" y2="89.73003999999999" stroke="#D2475E" stroke-width="1"></line><line x1="216.5" y1="91.50752000000001" x2="216.5" y2="89.83111999999998" stroke="#26A17B" stroke-width="1"></line><line x1="217.5" y1="90.97528000000001" x2="217.5" y2="90.37232000000002" stroke="#26A17B" stroke-width="1"></line><line x1="218.5" y1="91.86704" x2="218.5" y2="90.20400000000001" stroke="#D2475E" stroke-width="1"></line><line x1="219.5" y1="91.5928" x2="219.5" y2="89.88" stroke="#D2475E" stroke-width="1"></line><line x1="220.5" y1="93.65719999999999" x2="220.5" y2="89.04299999999999" stroke="#26A17B" stroke-width="1"></line><line x1="221.5" y1="92.28999999999999" x2="221.5" y2="87.81" stroke="#D2475E" stroke-width="1"></line><line x1="222.5" y1="92.128" x2="222.5" y2="90.26668" stroke="#26A17B" stroke-width="1"></line><line x1="223.5" y1="92.76984" x2="223.5" y2="90.66768" stroke="#D2475E" stroke-width="1"></line><line x1="224.5" y1="92.08544" x2="224.5" y2="91.39107999999999" stroke="#D2475E" stroke-width="1"></line><line x1="225.5" y1="92.03247999999999" x2="225.5" y2="91.17964" stroke="#26A17B" stroke-width="1"></line><line x1="226.5" y1="93.19588" x2="226.5" y2="90.89288000000002" stroke="#26A17B" stroke-width="1"></line><line x1="227.5" y1="91.4142" x2="227.5" y2="87.024" stroke="#26A17B" stroke-width="1"></line><line x1="228.5" y1="90.49332" x2="228.5" y2="87.36000000000001" stroke="#D2475E" stroke-width="1"></line><line x1="229.5" y1="90.71919999999999" x2="229.5" y2="89.048" stroke="#D2475E" stroke-width="1"></line><line x1="230.5" y1="90.99019999999999" x2="230.5" y2="89.74192000000001" stroke="#D2475E" stroke-width="1"></line><line x1="231.5" y1="90.47376" x2="231.5" y2="90.0746" stroke="#26A17B" stroke-width="1"></line><line x1="232.5" y1="90.91072" x2="232.5" y2="90.10139999999998" stroke="#D2475E" stroke-width="1"></line><line x1="233.5" y1="91.5902" x2="233.5" y2="89.21872" stroke="#26A17B" stroke-width="1"></line><line x1="234.5" y1="91.76160000000002" x2="234.5" y2="90.00296" stroke="#D2475E" stroke-width="1"></line><line x1="235.5" y1="93.10768" x2="235.5" y2="90.9606" stroke="#D2475E" stroke-width="1"></line><line x1="236.5" y1="107.336" x2="236.5" y2="92.86608" stroke="#D2475E" stroke-width="1"></line><line x1="237.5" y1="105.52400000000002" x2="237.5" y2="100.6696" stroke="#D2475E" stroke-width="1"></line><line x1="238.5" y1="104.79564" x2="238.5" y2="102.876" stroke="#26A17B" stroke-width="1"></line><line x1="239.5" y1="104.1158" x2="239.5" y2="102.804" stroke="#26A17B" stroke-width="1"></line><line x1="240.5" y1="104.752" x2="240.5" y2="102.96632000000001" stroke="#D2475E" stroke-width="1"></line><line x1="241.5" y1="106.8" x2="241.5" y2="103.44232000000001" stroke="#D2475E" stroke-width="1"></line><line x1="242.5" y1="104.74872" x2="242.5" y2="100.72292" stroke="#26A17B" stroke-width="1"></line><line x1="243.5" y1="104.54400000000001" x2="243.5" y2="101.68852000000001" stroke="#D2475E" stroke-width="1"></line><line x1="244.5" y1="104.89139999999998" x2="244.5" y2="102.7438" stroke="#D2475E" stroke-width="1"></line><line x1="245.5" y1="104.05632000000001" x2="245.5" y2="103.49692" stroke="#D2475E" stroke-width="1"></line><line x1="246.5" y1="104.13555999999998" x2="246.5" y2="103.27108" stroke="#26A17B" stroke-width="1"></line><line x1="247.5" y1="104.542" x2="247.5" y2="102.98404000000001" stroke="#26A17B" stroke-width="1"></line><line x1="248.5" y1="104.312" x2="248.5" y2="95.42860000000002" stroke="#26A17B" stroke-width="1"></line><line x1="249.5" y1="99.93103999999998" x2="249.5" y2="96.92572000000001" stroke="#D2475E" stroke-width="1"></line><line x1="250.5" y1="105.37996" x2="250.5" y2="97.64996000000001" stroke="#D2475E" stroke-width="1"></line><line x1="251.5" y1="106.665" x2="251.5" y2="103.37599999999999" stroke="#D2475E" stroke-width="1"></line><line x1="252.5" y1="104.99012" x2="252.5" y2="104.05" stroke="#26A17B" stroke-width="1"></line><line x1="253.5" y1="104.8" x2="253.5" y2="103.46" stroke="#26A17B" stroke-width="1"></line><line x1="254.5" y1="105.47516" x2="254.5" y2="103.56792" stroke="#D2475E" stroke-width="1"></line><line x1="255.5" y1="105.74952000000002" x2="255.5" y2="104.33803999999999" stroke="#D2475E" stroke-width="1"></line><line x1="256.5" y1="106.50996" x2="256.5" y2="103.83999999999999" stroke="#D2475E" stroke-width="1"></line><line x1="257.5" y1="105.53848" x2="257.5" y2="102.22744" stroke="#26A17B" stroke-width="1"></line><line x1="258.5" y1="105.41096" x2="258.5" y2="102.218" stroke="#D2475E" stroke-width="1"></line><line x1="259.5" y1="104.81344" x2="259.5" y2="104.21964000000001" stroke="#D2475E" stroke-width="1"></line><line x1="260.5" y1="105.71772000000001" x2="260.5" y2="103.86536000000001" stroke="#D2475E" stroke-width="1"></line><line x1="261.5" y1="108.396" x2="261.5" y2="104.39724000000001" stroke="#D2475E" stroke-width="1"></line><line x1="262.5" y1="107.47408" x2="262.5" y2="101.732" stroke="#26A17B" stroke-width="1"></line><line x1="263.5" y1="104.94332000000001" x2="263.5" y2="102.37912" stroke="#26A17B" stroke-width="1"></line><line x1="264.5" y1="103.49292" x2="264.5" y2="100.55803999999999" stroke="#26A17B" stroke-width="1"></line><line x1="265.5" y1="103.10400000000001" x2="265.5" y2="100.448" stroke="#26A17B" stroke-width="1"></line><line x1="266.5" y1="102.22" x2="266.5" y2="100.892" stroke="#D2475E" stroke-width="1"></line><line x1="267.5" y1="102.404" x2="267.5" y2="101.507" stroke="#D2475E" stroke-width="1"></line><line x1="268.5" y1="102.4906" x2="268.5" y2="98.364" stroke="#26A17B" stroke-width="1"></line><line x1="269.5" y1="101.32883999999999" x2="269.5" y2="98.06572" stroke="#26A17B" stroke-width="1"></line><line x1="270.5" y1="100.8" x2="270.5" y2="98.44547999999999" stroke="#D2475E" stroke-width="1"></line><line x1="271.5" y1="102.48920000000001" x2="271.5" y2="99.3616" stroke="#D2475E" stroke-width="1"></line><line x1="272.5" y1="102.12491999999999" x2="272.5" y2="101.02648" stroke="#26A17B" stroke-width="1"></line><line x1="273.5" y1="101.964" x2="273.5" y2="101.46875999999999" stroke="#D2475E" stroke-width="1"></line><line x1="274.5" y1="103.51167999999998" x2="274.5" y2="101.04584" stroke="#D2475E" stroke-width="1"></line><line x1="275.5" y1="104.03816" x2="275.5" y2="102.21539999999999" stroke="#26A17B" stroke-width="1"></line><line x1="276.5" y1="103.64664" x2="276.5" y2="102.41016" stroke="#D2475E" stroke-width="1"></line><line x1="277.5" y1="103.55175999999999" x2="277.5" y2="100.6" stroke="#26A17B" stroke-width="1"></line><line x1="278.5" y1="102.63040000000001" x2="278.5" y2="98.76607999999999" stroke="#26A17B" stroke-width="1"></line><line x1="279.5" y1="101.33936" x2="279.5" y2="99.02044000000001" stroke="#D2475E" stroke-width="1"></line><line x1="280.5" y1="100.45476" x2="280.5" y2="99.62003999999999" stroke="#26A17B" stroke-width="1"></line><line x1="281.5" y1="100.18363999999998" x2="281.5" y2="95.73796" stroke="#26A17B" stroke-width="1"></line><line x1="282.5" y1="98.87424" x2="282.5" y2="93.68" stroke="#D2475E" stroke-width="1"></line><line x1="283.5" y1="99.358" x2="283.5" y2="97.29392" stroke="#D2475E" stroke-width="1"></line><line x1="284.5" y1="99.19200000000001" x2="284.5" y2="96.64112" stroke="#26A17B" stroke-width="1"></line><line x1="285.5" y1="98.59200000000001" x2="285.5" y2="95.51844" stroke="#D2475E" stroke-width="1"></line><line x1="286.5" y1="99.29624000000001" x2="286.5" y2="94.82000000000001" stroke="#26A17B" stroke-width="1"></line><line x1="287.5" y1="96.63167999999999" x2="287.5" y2="95.88132" stroke="#26A17B" stroke-width="1"></line><line x1="288.5" y1="97.25" x2="288.5" y2="95.61944" stroke="#D2475E" stroke-width="1"></line><line x1="289.5" y1="98.96" x2="289.5" y2="96.04828" stroke="#D2475E" stroke-width="1"></line><line x1="290.5" y1="98.80799999999999" x2="290.5" y2="97.06" stroke="#D2475E" stroke-width="1"></line><line x1="291.5" y1="101.84536000000001" x2="291.5" y2="98.09044" stroke="#D2475E" stroke-width="1"></line><line x1="292.5" y1="101.78" x2="292.5" y2="100.21184" stroke="#D2475E" stroke-width="1"></line><line x1="293.5" y1="101.26" x2="293.5" y2="99.48" stroke="#26A17B" stroke-width="1"></line><line x1="294.5" y1="100.844" x2="294.5" y2="100.04167999999999" stroke="#D2475E" stroke-width="1"></line><line x1="295.5" y1="100.767" x2="295.5" y2="98.82668000000001" stroke="#26A17B" stroke-width="1"></line><line x1="296.5" y1="99.54936000000001" x2="296.5" y2="88" stroke="#26A17B" stroke-width="1"></line><line x1="297.5" y1="95.72272000000001" x2="297.5" y2="93.5454" stroke="#D2475E" stroke-width="1"></line><line x1="298.5" y1="95.42852" x2="298.5" y2="92.07056" stroke="#D2475E" stroke-width="1"></line><line x1="299.5" y1="95.59736000000001" x2="299.5" y2="92.33243999999999" stroke="#26A17B" stroke-width="1"></line><line x1="300.5" y1="93.68684" x2="300.5" y2="87.1698" stroke="#26A17B" stroke-width="1"></line><line x1="301.5" y1="90.14092" x2="301.5" y2="86.48004" stroke="#26A17B" stroke-width="1"></line><line x1="302.5" y1="89.44" x2="302.5" y2="87.008" stroke="#26A17B" stroke-width="1"></line><line x1="303.5" y1="88.46560000000001" x2="303.5" y2="69.03235999999998" stroke="#26A17B" stroke-width="1"></line><line x1="304.5" y1="76.67063999999999" x2="304.5" y2="66.88" stroke="#26A17B" stroke-width="1"></line><line x1="305.5" y1="73.28379999999999" x2="305.5" y2="67.46860000000001" stroke="#26A17B" stroke-width="1"></line><line x1="306.5" y1="72.99600000000001" x2="306.5" y2="68.70348000000001" stroke="#D2475E" stroke-width="1"></line><line x1="307.5" y1="74.43620000000001" x2="307.5" y2="71.02000000000001" stroke="#D2475E" stroke-width="1"></line><line x1="308.5" y1="72.56" x2="308.5" y2="70.02668" stroke="#26A17B" stroke-width="1"></line><line x1="309.5" y1="72.28" x2="309.5" y2="68.99956" stroke="#26A17B" stroke-width="1"></line><line x1="310.5" y1="71.74864000000002" x2="310.5" y2="68.57600000000002" stroke="#D2475E" stroke-width="1"></line><line x1="311.5" y1="71.9" x2="311.5" y2="69.11804000000001" stroke="#26A17B" stroke-width="1"></line><line x1="312.5" y1="71.61044000000001" x2="312.5" y2="65.672" stroke="#26A17B" stroke-width="1"></line><line x1="313.5" y1="70.79999999999998" x2="313.5" y2="64.06003999999999" stroke="#D2475E" stroke-width="1"></line><line x1="314.5" y1="71.52000000000001" x2="314.5" y2="68.214" stroke="#D2475E" stroke-width="1"></line><line x1="315.5" y1="69.65928" x2="315.5" y2="66.98000000000002" stroke="#26A17B" stroke-width="1"></line><line x1="316.5" y1="70.208" x2="316.5" y2="66.47999999999999" stroke="#D2475E" stroke-width="1"></line><line x1="317.5" y1="69.09639999999999" x2="317.5" y2="66.89468" stroke="#26A17B" stroke-width="1"></line><line x1="318.5" y1="69.90776" x2="318.5" y2="64.44800000000001" stroke="#26A17B" stroke-width="1"></line><line x1="319.5" y1="67.60000000000002" x2="319.5" y2="63.57599999999999" stroke="#26A17B" stroke-width="1"></line><line x1="320.5" y1="65.8638" x2="320.5" y2="56.11104" stroke="#26A17B" stroke-width="1"></line><line x1="321.5" y1="62.701160000000016" x2="321.5" y2="57.896000000000015" stroke="#26A17B" stroke-width="1"></line><line x1="322.5" y1="61.33228" x2="322.5" y2="58.36695999999998" stroke="#D2475E" stroke-width="1"></line><line x1="323.5" y1="61.07560000000001" x2="323.5" y2="59.11112" stroke="#D2475E" stroke-width="1"></line><line x1="324.5" y1="62.668000000000006" x2="324.5" y2="58.328040000000016" stroke="#D2475E" stroke-width="1"></line><line x1="325.5" y1="68.80000000000001" x2="325.5" y2="61.024" stroke="#D2475E" stroke-width="1"></line><line x1="326.5" y1="66.56" x2="326.5" y2="56.079999999999984" stroke="#26A17B" stroke-width="1"></line><line x1="327.5" y1="66" x2="327.5" y2="56.28183999999999" stroke="#D2475E" stroke-width="1"></line><line x1="328.5" y1="64.5556" x2="328.5" y2="60.80000000000001" stroke="#26A17B" stroke-width="1"></line><line x1="329.5" y1="63.28568000000001" x2="329.5" y2="60.61804000000001" stroke="#D2475E" stroke-width="1"></line><line x1="330.5" y1="62.46392000000003" x2="330.5" y2="58" stroke="#26A17B" stroke-width="1"></line><line x1="331.5" y1="61.292" x2="331.5" y2="57" stroke="#26A17B" stroke-width="1"></line><line x1="332.5" y1="65.06" x2="332.5" y2="57.402240000000006" stroke="#D2475E" stroke-width="1"></line><line x1="333.5" y1="65.47196" x2="333.5" y2="56.5556" stroke="#26A17B" stroke-width="1"></line><line x1="334.5" y1="60.51999999999998" x2="334.5" y2="57.38623999999999" stroke="#D2475E" stroke-width="1"></line><line x1="335.5" y1="58.99395999999999" x2="335.5" y2="54.343999999999994" stroke="#26A17B" stroke-width="1"></line><line x1="336.5" y1="57.63560000000001" x2="336.5" y2="56.44800000000001" stroke="#26A17B" stroke-width="1"></line><line x1="337.5" y1="59.400000000000006" x2="337.5" y2="56.741479999999996" stroke="#D2475E" stroke-width="1"></line><line x1="338.5" y1="61.172" x2="338.5" y2="57.72307999999998" stroke="#D2475E" stroke-width="1"></line><line x1="339.5" y1="60.52635999999998" x2="339.5" y2="54.49199999999999" stroke="#26A17B" stroke-width="1"></line><line x1="340.5" y1="57.72" x2="340.5" y2="54.19999999999999" stroke="#26A17B" stroke-width="1"></line><line x1="341.5" y1="58" x2="341.5" y2="55.41660000000002" stroke="#D2475E" stroke-width="1"></line></svg>
