<svg width="16" height="16" viewBox="0 0 16 16" fill="none" xmlns="http://www.w3.org/2000/svg">
<g clip-path="url(#clip0_644_138)">
<path d="M8 16C12.4183 16 16 12.4183 16 8C16 3.58172 12.4183 0 8 0C3.58172 0 0 3.58172 0 8C0 12.4183 3.58172 16 8 16Z" fill="#26A17B"/>
<path fill-rule="evenodd" clip-rule="evenodd" d="M8.96099 8.69148V8.69049C8.90599 8.69449 8.62249 8.71148 7.98999 8.71148C7.48499 8.71148 7.12949 8.69649 7.00449 8.69049V8.69199C5.06049 8.60649 3.60949 8.26798 3.60949 7.86298C3.60949 7.45848 5.06049 7.11998 7.00449 7.03298V8.35498C7.13149 8.36398 7.49549 8.38548 7.99849 8.38548C8.60199 8.38548 8.90449 8.36049 8.96099 8.35548V7.03398C10.901 7.12048 12.3485 7.45898 12.3485 7.86298C12.3485 8.26798 10.901 8.60548 8.96099 8.69148ZM8.96099 6.89649V5.71349H11.668V3.90948H4.29749V5.71349H7.00449V6.89598C4.80449 6.99698 3.14999 7.43298 3.14999 7.95498C3.14999 8.47698 4.80449 8.91248 7.00449 9.01398V12.805H8.96099V9.01298C11.1575 8.91198 12.808 8.47648 12.808 7.95498C12.808 7.43348 11.1575 6.99799 8.96099 6.89649Z" fill="white"/>
</g>
<defs>
<clipPath id="clip0_644_138">
<rect width="16" height="16" fill="white"/>
</clipPath>
</defs>
</svg>
